<svg width="40" height="40" viewBox="0 0 40 40" fill="none" xmlns="http://www.w3.org/2000/svg">
<rect width="40" height="40" rx="10" fill="#5865F2"/>
<rect x="0.5" y="0.5" width="39" height="39" rx="9.5" stroke="black" stroke-opacity="0.08"/>
<path d="M28.3303 12.2278C26.7767 11.5009 25.1156 10.9727 23.3789 10.6719C23.1656 11.0575 22.9164 11.5761 22.7446 11.9887C20.8985 11.7111 19.0693 11.7111 17.2572 11.9887C17.0854 11.5761 16.8306 11.0575 16.6154 10.6719C14.8768 10.9727 13.2138 11.5029 11.6602 12.2317C8.52664 16.9669 7.67719 21.5845 8.10192 26.1365C10.1803 27.6885 12.1944 28.6313 14.1746 29.2483C14.6635 28.5754 15.0995 27.8601 15.4752 27.1063C14.7598 26.8344 14.0745 26.499 13.4271 26.1095C13.5988 25.9822 13.7669 25.8492 13.9292 25.7123C17.8782 27.5594 22.1689 27.5594 26.0707 25.7123C26.235 25.8492 26.403 25.9822 26.5728 26.1095C25.9235 26.5009 25.2364 26.8363 24.521 27.1082C24.8966 27.8601 25.3308 28.5774 25.8216 29.2502C27.8036 28.6333 29.8197 27.6905 31.898 26.1365C32.3964 20.8595 31.0467 16.2843 28.3303 12.2278ZM16.0132 23.337C14.8277 23.337 13.8556 22.2303 13.8556 20.8826C13.8556 19.535 14.807 18.4264 16.0132 18.4264C17.2194 18.4264 18.1916 19.533 18.1708 20.8826C18.1727 22.2303 17.2194 23.337 16.0132 23.337ZM23.9867 23.337C22.8013 23.337 21.8291 22.2303 21.8291 20.8826C21.8291 19.535 22.7805 18.4264 23.9867 18.4264C25.193 18.4264 26.1651 19.533 26.1444 20.8826C26.1444 22.2303 25.193 23.337 23.9867 23.337Z" fill="white"/>
</svg>
