<svg width="40" height="40" viewBox="0 0 40 40" fill="none" xmlns="http://www.w3.org/2000/svg">
<rect width="40" height="40" rx="10" fill="#DA552F"/>
<rect x="0.5" y="0.5" width="39" height="39" rx="9.5" stroke="black" stroke-opacity="0.08"/>
<path d="M31 20C31 26.0748 26.0748 31 20 31C13.9244 31 9 26.0748 9 20C9 13.9244 13.9248 9 20 9C26.0748 9 31 13.9248 31 20Z" fill="white"/>
<path d="M21.4661 20H18.3497V16.7H21.4661C21.6828 16.7 21.8973 16.7427 22.0975 16.8256C22.2977 16.9085 22.4796 17.0301 22.6328 17.1833C22.786 17.3365 22.9076 17.5184 22.9905 17.7186C23.0734 17.9188 23.1161 18.1333 23.1161 18.35C23.1161 18.5667 23.0734 18.7812 22.9905 18.9814C22.9076 19.1816 22.786 19.3635 22.6328 19.5167C22.4796 19.6699 22.2977 19.7915 22.0975 19.8744C21.8973 19.9573 21.6828 20 21.4661 20M21.4661 14.5H16.1497V25.5H18.3497V22.2H21.4661C23.5923 22.2 25.3161 20.4763 25.3161 18.35C25.3161 16.2237 23.5923 14.5 21.4661 14.5" fill="#DA552F"/>
</svg>
