<svg width="40" height="40" viewBox="0 0 40 40" fill="none" xmlns="http://www.w3.org/2000/svg">
<rect width="40" height="40" rx="10" fill="black"/>
<rect x="0.5" y="0.5" width="39" height="39" rx="9.5" stroke="black" stroke-opacity="0.08"/>
<path fill-rule="evenodd" clip-rule="evenodd" d="M20 20C20 23.3137 17.3137 26 14 26C10.6863 26 8 23.3137 8 20C8 16.6863 10.6863 14 14 14C17.3137 14 20 16.6863 20 20ZM27.5 20C27.5 23.3137 26.1569 26 24.5 26C22.8431 26 21.5 23.3137 21.5 20C21.5 16.6863 22.8431 14 24.5 14C26.1569 14 27.5 16.6863 27.5 20ZM30.375 25.5C31.1344 25.5 31.75 23.0376 31.75 20C31.75 16.9624 31.1344 14.5 30.375 14.5C29.6156 14.5 29 16.9624 29 20C29 23.0376 29.6156 25.5 30.375 25.5Z" fill="white"/>
</svg>
