<svg width="40" height="40" viewBox="0 0 40 40" fill="none" xmlns="http://www.w3.org/2000/svg">
<rect width="40" height="40" rx="10" fill="#FF4500"/>
<rect x="0.5" y="0.5" width="39" height="39" rx="9.5" stroke="black" stroke-opacity="0.08"/>
<g clip-path="url(#clip0_616_3940)">
<path d="M23.464 25.9554C22.5728 26.8458 21.1376 27.0174 19.9324 27.0174C18.7286 27.0174 17.2921 26.8458 16.4022 25.9554M26.1891 11.8602L21.6762 10.7982L19.924 16.1467L21.6766 10.7982M29.8094 12.2254C29.8094 12.6972 29.622 13.1497 29.2883 13.4833C28.9547 13.8169 28.5022 14.0043 28.0304 14.0043C27.5586 14.0043 27.1061 13.8169 26.7725 13.4833C26.4389 13.1497 26.2515 12.6972 26.2515 12.2254C26.2619 11.7605 26.4539 11.3181 26.7864 10.993C27.1189 10.6679 27.5654 10.4858 28.0304 10.4858C28.4955 10.4858 28.942 10.6679 29.2745 10.993C29.607 11.3181 29.799 11.7605 29.8094 12.2254V12.2254ZM30.1041 22.8839C30.1041 26.5675 25.5283 29.5543 19.8843 29.5543C14.2398 29.5543 9.66448 26.568 9.66448 22.8839C9.66448 19.2003 14.2398 16.2135 19.8843 16.2135C25.5283 16.2135 30.1041 19.1999 30.1041 22.8839ZM9.79735 21.8473C9.39592 21.6711 9.05451 21.3818 8.81484 21.0148C8.57516 20.6477 8.44761 20.2187 8.44775 19.7804C8.44747 19.3173 8.58967 18.8654 8.85504 18.486C9.12041 18.1066 9.49611 17.818 9.93113 17.6594C10.3662 17.5008 10.8394 17.4799 11.2867 17.5996C11.734 17.7192 12.1337 17.9736 12.4314 18.3282M27.3978 18.3741C27.6894 18.0084 28.0876 17.7423 28.5371 17.6127C28.9867 17.4832 29.4653 17.4965 29.9069 17.651C30.3485 17.8054 30.7312 18.0933 31.002 18.4748C31.2728 18.8563 31.4183 19.3125 31.4185 19.7804C31.4184 20.2354 31.2809 20.6798 31.0239 21.0553C30.767 21.4309 30.4025 21.72 29.9784 21.8848" fill="white"/>
<path d="M19.8839 30.0005C14.0027 30.0005 9.21824 26.8082 9.21824 22.8843C9.21824 22.6132 9.24097 22.3448 9.28556 22.0813C8.89317 21.839 8.56925 21.5004 8.34459 21.0976C8.11993 20.6949 8.00198 20.2414 8.00195 19.7802C8.00278 19.0639 8.28769 18.3771 8.79419 17.8705C9.3007 17.3639 9.98745 17.0789 10.7038 17.0779C11.3695 17.0779 12.0039 17.3214 12.4948 17.7565C14.3446 16.5692 16.8329 15.822 19.578 15.7703L21.3802 10.2702L21.7734 10.363L21.7828 10.3652L25.9831 11.3541C26.1545 10.9529 26.4398 10.6108 26.8038 10.3702C27.1677 10.1296 27.5942 10.001 28.0305 10.0005C28.6204 10.0012 29.1859 10.2359 29.603 10.6531C30.0201 11.0702 30.2547 11.6358 30.2553 12.2257C30.2546 12.8156 30.02 13.381 29.6029 13.7981C29.1858 14.2152 28.6203 14.4498 28.0305 14.4505C27.4411 14.4499 26.8759 14.2157 26.4589 13.7992C26.0419 13.3827 25.807 12.8178 25.8057 12.2284L21.9732 11.326L20.5139 15.7801C23.1591 15.8831 25.548 16.6325 27.3314 17.794C27.8296 17.3326 28.484 17.077 29.163 17.0784C29.8794 17.0792 30.5663 17.3642 31.0729 17.8708C31.5795 18.3774 31.8644 19.0642 31.8653 19.7807C31.8674 20.2599 31.7412 20.731 31.4997 21.145C31.2582 21.559 30.9103 21.9008 30.492 22.1348C30.5308 22.3813 30.5509 22.631 30.5509 22.8843C30.55 26.8082 25.7651 30.0005 19.8839 30.0005V30.0005ZM10.1991 22.0407C10.1398 22.318 10.1099 22.6007 10.1099 22.8843C10.1099 26.3169 14.4944 29.1088 19.8839 29.1088C25.2733 29.1088 29.6578 26.3164 29.6578 22.8843C29.6578 22.6114 29.6302 22.3425 29.5763 22.0786C29.5472 22.0181 29.5321 21.9518 29.5321 21.8847C29.2338 20.7134 28.4202 19.6501 27.2449 18.7931C27.1701 18.766 27.104 18.7191 27.0536 18.6576C25.2671 17.4293 22.7146 16.6593 19.8839 16.6593C17.0817 16.6593 14.5511 17.4141 12.7672 18.6215C12.7185 18.6768 12.6572 18.7195 12.5884 18.7459C11.3877 19.6032 10.5531 20.6737 10.2432 21.8552C10.2423 21.9142 10.2296 21.9724 10.2058 22.0264C10.2036 22.0313 10.2018 22.0362 10.1991 22.0407V22.0407ZM28.0764 18.3317C29.1103 19.1587 29.8692 20.1436 30.2571 21.2244C30.4805 21.0559 30.6615 20.8377 30.7857 20.587C30.91 20.3363 30.974 20.06 30.9727 19.7802C30.9722 19.3002 30.7813 18.8399 30.4418 18.5005C30.1024 18.161 29.6421 17.9701 29.1621 17.9696C28.7704 17.9691 28.3893 18.0962 28.0764 18.3317V18.3317ZM10.7038 17.9696C10.2238 17.9702 9.76369 18.1612 9.42433 18.5006C9.08498 18.8401 8.89413 19.3003 8.89366 19.7802C8.89366 20.3211 9.13442 20.8235 9.5339 21.1624C9.93472 20.0901 10.7011 19.1132 11.7391 18.2942C11.4352 18.0829 11.0739 17.9696 10.7038 17.9696V17.9696ZM28.03 10.8917C27.2953 10.8917 26.6969 11.4901 26.6969 12.2253C26.6969 12.9605 27.2953 13.5584 28.03 13.5584C28.7648 13.5584 29.3631 12.9605 29.3631 12.2253C29.3631 11.4901 28.7653 10.8917 28.03 10.8917V10.8917ZM19.9325 27.4627C18.1469 27.4627 16.8887 27.0726 16.0866 26.2701C16.003 26.1864 15.956 26.0729 15.9561 25.9547C15.9561 25.8364 16.0031 25.723 16.0868 25.6394C16.1705 25.5558 16.2839 25.5089 16.4022 25.5089C16.5204 25.5089 16.6339 25.556 16.7175 25.6396C17.3439 26.266 18.3952 26.571 19.9325 26.571C21.4693 26.571 22.5215 26.266 23.1489 25.6396C23.1903 25.5983 23.2394 25.5654 23.2935 25.5431C23.3475 25.5207 23.4055 25.5092 23.464 25.5092C23.5225 25.5092 23.5805 25.5208 23.6345 25.5432C23.6886 25.5656 23.7377 25.5984 23.7791 25.6398C23.8204 25.6812 23.8532 25.7304 23.8756 25.7844C23.898 25.8385 23.9095 25.8965 23.9095 25.955C23.9095 26.0135 23.8979 26.0715 23.8755 26.1255C23.8531 26.1796 23.8202 26.2287 23.7789 26.2701C22.9759 27.0726 21.7181 27.4627 19.9325 27.4627Z" fill="black"/>
<path d="M23.5479 19.9185C22.6392 19.9185 21.8764 20.6795 21.8764 21.5882C21.8764 22.4964 22.6392 23.2325 23.5479 23.2325C24.4565 23.2325 25.1922 22.4964 25.1922 21.5882C25.1922 20.6795 24.4561 19.9185 23.5479 19.9185V19.9185ZM16.3438 19.9185C15.436 19.9185 14.6741 20.6804 14.6741 21.5882C14.6741 22.4959 15.4356 23.2325 16.3438 23.2325C17.252 23.2325 17.9881 22.4959 17.9881 21.5882C17.9881 20.6804 17.2515 19.9185 16.3438 19.9185V19.9185Z" fill="#FF4500"/>
</g>
<defs>
<clipPath id="clip0_616_3940">
<rect width="23.8663" height="20" fill="white" transform="translate(8 10)"/>
</clipPath>
</defs>
</svg>
