<svg width="40" height="40" viewBox="0 0 40 40" fill="none" xmlns="http://www.w3.org/2000/svg">
<rect width="40" height="40" rx="10" fill="white"/>
<rect x="0.5" y="0.5" width="39" height="39" rx="9.5" stroke="black" stroke-opacity="0.08"/>
<path d="M26.4039 13.581L26.3893 13.5737L26.3528 13.5591C26.3601 13.5737 26.382 13.581 26.4039 13.581Z" fill="#010202"/>
<path d="M26.6457 15.3022L26.623 15.3098L26.6457 15.3022Z" fill="#010202"/>
<path d="M26.623 15.2875L26.6523 15.2729L26.6596 15.2656L26.6669 15.2583C26.6523 15.2656 26.6377 15.2802 26.623 15.2875Z" fill="#010202"/>
<path d="M26.4476 13.618L26.4184 13.5888L26.3965 13.5815C26.4111 13.5961 26.4257 13.6107 26.4476 13.618Z" fill="#010202"/>
<path d="M19.6017 30.2729C19.5797 30.2802 19.5578 30.2948 19.5432 30.3167L19.5578 30.3021C19.5797 30.2875 19.5944 30.2802 19.6017 30.2729Z" fill="#010202"/>
<path d="M23.5838 29.4858C23.5838 29.4639 23.5692 29.4639 23.5765 29.5514C23.5765 29.5441 23.5765 29.5368 23.5838 29.5295C23.5765 29.5222 23.5765 29.5077 23.5838 29.4858Z" fill="#010202"/>
<path d="M23.1671 30.2729C23.1452 30.2802 23.1233 30.2948 23.1086 30.3167L23.1233 30.3021C23.1452 30.2875 23.1598 30.2802 23.1671 30.2729Z" fill="#010202"/>
<path d="M16.8033 30.4554C16.7887 30.4409 16.7668 30.4336 16.7449 30.4263C16.7595 30.4336 16.7814 30.4409 16.7887 30.4481L16.8033 30.4554Z" fill="#010202"/>
<path d="M16.1823 29.8576C16.1823 29.8357 16.175 29.8065 16.1604 29.7847C16.1677 29.8065 16.175 29.8284 16.1823 29.8576Z" fill="#010202"/>
<path d="M20.4055 19.0871C19.5434 19.459 18.557 19.8747 17.2857 19.8747C16.7523 19.8747 16.2263 19.8018 15.7148 19.6559L16.5916 28.669C16.6208 29.0482 16.7962 29.3982 17.0738 29.6534C17.3515 29.9086 17.7168 30.0545 18.0967 30.0545C18.0967 30.0545 19.3461 30.1201 19.7626 30.1201C20.2083 30.1201 21.5526 30.0545 21.5526 30.0545C21.9326 30.0545 22.2979 29.9159 22.5755 29.6534C22.8532 29.3982 23.0285 29.0482 23.0577 28.669L24.0003 18.7152C23.5765 18.5694 23.1527 18.4746 22.6778 18.4746C21.8449 18.4746 21.18 18.759 20.4055 19.0871Z" fill="#FFDD06"/>
<path d="M12.9895 15.2515L13.0046 15.2665L13.0122 15.2741C13.0122 15.259 13.0046 15.2515 12.9895 15.2515Z" fill="#010202"/>
<path d="M28.0625 14.4126L27.9309 13.7491C27.814 13.1511 27.5437 12.5823 26.93 12.3708C26.7327 12.3052 26.5062 12.2688 26.3601 12.1302C26.2066 11.9844 26.1628 11.7656 26.1263 11.5614C26.0605 11.1822 26.0021 10.803 25.9363 10.4238C25.8779 10.0957 25.834 9.7311 25.6879 9.43941C25.4906 9.03835 25.0888 8.805 24.6869 8.65186C24.4823 8.57894 24.2705 8.51331 24.0586 8.45498C23.0576 8.19246 22.0055 8.09766 20.9753 8.03933C19.7405 7.9737 18.4984 7.98828 17.2637 8.09766C16.3431 8.17788 15.3786 8.27997 14.5092 8.60082C14.1877 8.71749 13.8589 8.85604 13.6178 9.10397C13.3182 9.40295 13.2232 9.87694 13.4424 10.2488C13.5959 10.5186 13.8589 10.7082 14.1365 10.8322C14.4945 10.9926 14.8745 11.1166 15.2617 11.1968C16.3431 11.4375 17.4536 11.525 18.5569 11.5687C19.777 11.6198 20.9972 11.576 22.2174 11.452C22.5169 11.4156 22.8165 11.3791 23.1161 11.3354C23.4668 11.2843 23.6933 10.8176 23.591 10.5041C23.4668 10.1176 23.1307 9.97174 22.758 10.0301C22.6996 10.0374 22.6484 10.0447 22.59 10.0519L22.5535 10.0592C22.4219 10.0738 22.2977 10.0884 22.1662 10.103C21.9032 10.1322 21.6402 10.154 21.3698 10.1759C20.778 10.2197 20.1789 10.2343 19.5798 10.2343C18.9953 10.2343 18.4108 10.2197 17.8262 10.1759C17.5559 10.1613 17.2929 10.1395 17.0299 10.1103C16.9056 10.0957 16.7887 10.0811 16.6718 10.0665L16.5549 10.0519H16.533L16.4161 10.0374C16.175 10.0009 15.9339 9.95715 15.6928 9.90611C15.6709 9.89882 15.649 9.88423 15.6343 9.86965C15.6197 9.85506 15.6124 9.82589 15.6124 9.80402C15.6124 9.78214 15.6197 9.75297 15.6343 9.73839C15.649 9.7238 15.6709 9.70922 15.6928 9.70193H15.7001C15.9047 9.65818 16.1166 9.62171 16.3284 9.58525C16.4015 9.57067 16.4673 9.56338 16.5403 9.55609C16.6718 9.54879 16.8034 9.52692 16.9349 9.50504C18.0747 9.38837 19.2218 9.34461 20.3689 9.38107C20.9241 9.39566 21.4794 9.43212 22.0347 9.48316C22.1516 9.49775 22.2758 9.50504 22.3927 9.51962C22.4366 9.52692 22.4804 9.53421 22.5315 9.53421L22.6265 9.54879C22.8969 9.58525 23.1599 9.6363 23.4302 9.69464C23.8248 9.78214 24.3289 9.81131 24.5043 10.2343C24.5627 10.3728 24.5846 10.5186 24.6139 10.6645L24.6504 10.8468V10.8541C24.7454 11.2843 24.833 11.7146 24.928 12.1448C24.9353 12.174 24.9353 12.2104 24.928 12.2396C24.9207 12.2688 24.9061 12.3052 24.8915 12.3271C24.8696 12.3563 24.8477 12.3781 24.8184 12.3927C24.7892 12.4073 24.76 12.4219 24.7308 12.4219L24.6723 12.4292L24.6139 12.4365C24.4385 12.4583 24.2558 12.4802 24.0805 12.5021C23.7298 12.5386 23.3791 12.575 23.0284 12.6042C22.327 12.6625 21.6329 12.699 20.9315 12.7209C20.5734 12.7282 20.2154 12.7354 19.8574 12.7354C18.4327 12.7354 17.0152 12.6552 15.6051 12.4875C15.4517 12.4729 15.2982 12.4511 15.1448 12.4292C15.2617 12.4438 15.0571 12.4146 15.0206 12.4146C14.9256 12.4 14.8233 12.3854 14.7284 12.3708C14.3996 12.3198 14.0781 12.2615 13.7493 12.2104C13.3548 12.1448 12.9821 12.1812 12.6241 12.3708C12.3319 12.5313 12.0981 12.7719 11.9446 13.0709C11.7912 13.3844 11.7474 13.7345 11.6743 14.0699C11.6085 14.4126 11.4989 14.7772 11.5428 15.1273C11.6305 15.8783 12.1565 16.4909 12.9164 16.6294C13.6324 16.7607 14.3484 16.8628 15.0718 16.9503C17.8993 17.293 20.7634 17.3368 23.5983 17.0743C23.8321 17.0524 24.0586 17.0305 24.2924 17.0013C24.3654 16.994 24.4385 17.0013 24.5043 17.0232C24.57 17.0451 24.6358 17.0888 24.6869 17.1399C24.7381 17.1909 24.7746 17.2493 24.8038 17.3222C24.8257 17.3878 24.8404 17.4607 24.833 17.5337L24.76 18.2337C24.6139 19.6411 24.4677 21.0485 24.3289 22.4631C24.1755 23.9434 24.0293 25.4237 23.8759 26.904C23.8321 27.3197 23.7882 27.7353 23.7444 28.151C23.7006 28.5593 23.7006 28.9823 23.6202 29.3906C23.496 30.0251 23.0649 30.4188 22.4366 30.5647C21.8594 30.6959 21.2675 30.7616 20.6757 30.7688C20.0182 30.7688 19.3606 30.747 18.703 30.747C18.0016 30.7543 17.1395 30.6886 16.5988 30.1636C16.1239 29.7042 16.0581 28.9896 15.9924 28.3697C15.9047 27.553 15.817 26.729 15.7366 25.9123L15.2617 21.3547L14.9549 18.4014C14.9475 18.3504 14.9475 18.3066 14.9402 18.2556C14.9037 17.9056 14.6553 17.5628 14.2607 17.5774C13.9247 17.592 13.5447 17.8764 13.5813 18.2556L13.8078 20.4432L14.2827 24.9643C14.4142 26.2477 14.553 27.5311 14.6845 28.8219C14.7137 29.0698 14.7357 29.3177 14.7649 29.5584C14.911 30.9074 15.9412 31.6293 17.2198 31.8335C17.9651 31.9502 18.7249 31.9793 19.4848 31.9866C20.4565 32.0012 21.4356 32.0377 22.3854 31.8627C23.7955 31.6074 24.855 30.6668 25.0084 29.201C25.0522 28.7781 25.0961 28.3552 25.1399 27.9395C25.286 26.5467 25.4249 25.1539 25.571 23.7538L26.0386 19.1963L26.2505 17.1107C26.2578 17.0086 26.3016 16.9065 26.3747 16.8336C26.4478 16.7607 26.5354 16.7024 26.6377 16.6878C27.0396 16.6076 27.4268 16.4763 27.7117 16.17C28.1355 15.6888 28.2232 15.0543 28.0625 14.4126ZM12.8798 14.8647C12.8872 14.8647 12.8725 14.9158 12.8725 14.9377C12.8652 14.9012 12.8652 14.8647 12.8798 14.8647ZM12.9164 15.1637C12.9164 15.1637 12.931 15.171 12.9383 15.1929C12.9237 15.1783 12.9164 15.1637 12.9164 15.1637ZM12.9529 15.2148C12.9675 15.2439 12.9748 15.2585 12.9529 15.2148V15.2148ZM13.0333 15.2804C13.0333 15.2804 13.0406 15.2804 13.0333 15.2804V15.2804ZM26.5793 15.1856C26.4331 15.3241 26.2139 15.3898 26.0021 15.4189C23.5837 15.7763 21.1214 15.9586 18.6738 15.8783C16.9203 15.82 15.1887 15.6231 13.4497 15.3825C13.2817 15.3606 13.099 15.3241 12.9821 15.2002C12.7629 14.9668 12.8725 14.4928 12.931 14.2012C12.9821 13.9386 13.0844 13.5886 13.3986 13.5522C13.8808 13.4938 14.4507 13.698 14.9256 13.7709C15.5028 13.8584 16.0873 13.9314 16.6645 13.9824C19.1487 14.2085 21.684 14.172 24.1536 13.8438C24.6065 13.7855 25.0522 13.7126 25.5052 13.6324C25.9071 13.5595 26.3455 13.4282 26.5866 13.8366C26.7546 14.1209 26.7765 14.4928 26.7473 14.8137C26.7473 14.9595 26.6816 15.0908 26.5793 15.1856Z" fill="#010202"/>
</svg>
