<svg width="40" height="40" viewBox="0 0 40 40" fill="none" xmlns="http://www.w3.org/2000/svg">
<rect width="40" height="40" rx="10" fill="#4263EA"/>
<rect x="0.5" y="0.5" width="39" height="39" rx="9.5" stroke="black" stroke-opacity="0.08"/>
<path fill-rule="evenodd" clip-rule="evenodd" d="M17.1561 13.1932C16.6188 13.0483 16.0332 13 15.3993 13H9V26.4808L15.5442 26.4688C16.1298 26.4688 16.7154 26.3722 17.301 26.2273C17.8866 26.0824 18.4239 25.8409 18.8646 25.5451C19.3053 25.2553 19.6977 24.8146 19.9392 24.3256C20.1867 23.8366 20.3316 23.251 20.3316 22.5688C20.3316 21.7357 20.0841 21.0052 19.6977 20.4196C19.3114 19.834 18.6775 19.3933 17.8443 19.1518C18.436 18.862 18.9189 18.4696 19.2148 18.0289C19.5589 17.5882 19.7038 17.0026 19.7038 16.3204C19.7038 15.7348 19.6011 15.1975 19.4079 14.7568C19.2087 14.3161 18.9189 13.972 18.5265 13.7305C18.1341 13.489 17.6934 13.2898 17.1561 13.1932ZM16.323 18.0772C15.9849 18.3247 15.5442 18.4696 15.0069 18.4696C15.0069 18.4696 11.9823 18.4696 11.9823 18.4756V15.3001H14.8137C15.1035 15.3001 15.351 15.3001 15.5925 15.3484C15.834 15.3967 16.0332 15.4933 16.2264 15.5899C16.4256 15.7348 16.5705 15.8857 16.6671 16.0789C16.7637 16.2721 16.812 16.5619 16.812 16.8577C16.812 17.395 16.6611 17.8297 16.323 18.0772ZM15.9849 24.1384C15.7374 24.1867 15.4476 24.235 15.1518 24.235V24.229H11.9823V20.4679H15.2001C15.834 20.4679 16.3713 20.6128 16.7637 20.9086C17.1561 21.2527 17.3493 21.7417 17.3493 22.4239C17.3493 22.768 17.2527 23.0638 17.1561 23.3053C17.0112 23.5468 16.8603 23.6917 16.6671 23.8426C16.4739 23.9935 16.2264 24.0901 15.9849 24.1384ZM26.3386 24.7722C25.5598 24.7722 24.9742 24.579 24.5818 24.1866C24.1893 23.7942 23.8996 23.0637 23.8996 22.2668H30.9811C31.0294 21.488 30.9811 20.7998 30.8845 20.1176C30.6853 19.4354 30.3955 18.8015 30.0031 18.2642C29.6107 17.6786 29.1217 17.2923 28.4878 16.9482C27.8539 16.604 27.1234 16.4591 26.2903 16.4591C25.5054 16.4591 24.8715 16.6101 24.2376 16.8516C23.652 17.093 23.1147 17.4855 22.674 17.9262C22.2333 18.4152 21.8953 18.9525 21.6477 19.5864C21.4002 20.2203 21.3036 20.9085 21.3036 21.639C21.3036 22.4238 21.4062 23.106 21.6477 23.7399C21.847 24.3738 22.185 24.9111 22.6257 25.3518C23.0664 25.8408 23.5555 26.1849 24.1893 26.4264C24.8232 26.6739 25.5115 26.8188 26.2903 26.8188C27.4132 26.8188 28.3429 26.529 29.1217 26.04C29.9004 25.5027 30.486 24.6696 30.8784 23.4984H28.4878C28.3912 23.7942 28.1497 24.084 27.7573 24.3798C27.3649 24.6273 26.8759 24.7722 26.3386 24.7722ZM26.1454 18.5178C26.7793 18.5178 27.3166 18.711 27.6607 19.0551C27.9988 19.3992 28.2463 19.8882 28.3429 20.6127H23.9479C23.9479 20.4496 23.9823 20.2822 24.0221 20.0888C24.0294 20.053 24.0369 20.0164 24.0445 19.9788C24.0928 19.7373 24.1954 19.4898 24.3886 19.2966C24.3957 19.2894 24.4029 19.2823 24.41 19.2751C24.5962 19.0887 24.7859 18.8988 25.0708 18.7593C25.3666 18.6144 25.7047 18.5178 26.1454 18.5178ZM28.8319 13.9296H23.3623V15.2457H28.8319V13.9296Z" fill="white"/>
</svg>
